<svg width="1000" height="200" viewBox="0 0 1000 200" fill="none" xmlns="http://www.w3.org/2000/svg">
<path d="M100 0L123.607 76.3932H200L138.197 123.607L161.803 200L100 152.786L38.1966 200L61.8034 123.607L0 76.3932H76.3932L100 0Z" fill="#981C1C"/>
<path d="M300 10L321.246 78.7539H390L334.377 121.246L355.623 190L300 147.508L244.377 190L265.623 121.246L210 78.7539H278.754L300 10Z" fill="#981C1C"/>
<path d="M500 30L516.525 83.4752H570L526.738 116.525L543.262 170L500 136.95L456.738 170L473.262 116.525L430 83.4752H483.475L500 30Z" fill="#981C1C"/>
<path d="M700 50L711.803 88.1966H750L719.098 111.803L730.902 150L700 126.393L669.098 150L680.902 111.803L650 88.1966H688.197L700 50Z" fill="#981C1C"/>
<path d="M900 75L905.902 94.0983H925L909.549 105.902L915.451 125L900 113.197L884.549 125L890.451 105.902L875 94.0983H894.098L900 75Z" fill="#981C1C"/>
</svg>
